<?xml version="1.0" encoding="UTF-8"?>
<!DOCTYPE svg PUBLIC "-//W3C//DTD SVG 1.1//EN" "http://www.w3.org/Graphics/SVG/1.1/DTD/svg11.dtd">
<!-- Creator: CorelDRAW 2019 (64 Bit) -->
<svg xmlns="http://www.w3.org/2000/svg" xml:space="preserve" width="229.267mm" height="219.652mm" version="1.1" style="shape-rendering:geometricPrecision; text-rendering:geometricPrecision; image-rendering:optimizeQuality; fill-rule:evenodd; clip-rule:evenodd"
viewBox="0 0 22925.62 21964.18"
 xmlns:xlink="http://www.w3.org/1999/xlink">
 <defs>
  <style type="text/css">
   <![CDATA[
    .str0 {stroke:#3B82F6;stroke-width:20;stroke-miterlimit:22.9256}
    .fil3 {fill:none}
    .fil0 {fill:#3B82F6}
    .fil1 {fill:white}
    .fil2 {fill:#003B99;fill-rule:nonzero}
   ]]>
  </style>
   <clipPath id="id0">
    <path d="M11469.75 4747.11c-49.91,-33.43 -325.46,-302.25 -405.46,-376.26l-426.75 -354.98 -315.81 -213.75c-219.32,-134.31 -443.73,-260.93 -683.21,-359.1 -441.03,-180.78 -893.77,-317.58 -1372.85,-375.53 -168.3,-20.37 -315.18,-34.61 -486.31,-34.84 -57.81,-0.08 -99.92,-8.7 -167.83,-8.7 -125.71,0 -319.37,7.06 -439.41,22.9 -35.82,4.72 -79.63,5.94 -108.47,9.21l-310.71 42.33c-251.58,41.36 -512.88,99.8 -746.89,186.14l-336.23 126.08c-435.4,171.84 -950.84,481.66 -1309.12,800.7 -128.72,114.62 -318.33,273.79 -419.97,395.38 -22.89,27.38 -28.96,37.1 -55.04,62.65 -97.89,95.89 -177.71,209.55 -264.92,315.08 -89.7,108.53 -167.96,225.38 -245.8,342.6l-90.8 144.56c-103.36,171.69 -204.84,344.78 -282.52,532.84 -89.72,217.23 -153.65,349.83 -230.82,592.94 -244.08,769.02 -309.29,1683.45 -153.08,2471.07 75.78,382.03 173.29,726.61 325.74,1069.61 49.23,110.76 94.07,216.67 151.48,319.24 115.66,206.66 225.26,385.37 360.57,572.45 68.76,95.07 130.25,177.99 203.36,267.36 37,45.23 67.33,85.21 105.32,130.04 76.51,90.3 193.97,229.41 272.74,307.26l113.49 121.86c135.79,134.56 265.17,280.02 394.98,420.37l1164.3 1180.9c157.56,157.56 308.96,308.96 466.52,466.52l1596.91 1555.22c23.95,23.69 39.44,30.62 63.38,54.3 70.13,69.39 164.64,177.98 237.3,233.43l2347.29 2326.27c39.42,39.43 75.37,73.15 113.48,113.46 6.29,6.65 6.5,6.96 11.98,13.24 1.14,1.31 2.73,3.23 3.86,4.55l445.08 462.73c48.53,32.89 87.31,67.58 127.47,107.9 58.16,58.37 124.71,122.53 205.36,147.68 115.09,35.9 229.25,7.88 319.3,-64.32 58.1,-46.59 106.34,-105.86 161.81,-149.2 156.08,-121.95 817.32,-803.33 940.03,-926.04l754.66 -749.97c11.78,-11.29 5.81,-7.31 20.75,-21.27l215.31 -213.39c1.19,-1.26 2.94,-3.02 4.15,-4.26 6.67,-6.8 5.97,-5.62 12.83,-12.38l874.05 -874.34c1.19,-1.26 2.93,-3.03 4.13,-4.27l134.83 -134.15c1.16,-1.28 2.82,-3.14 3.98,-4.43l462.32 -462.31c1.16,-1.28 2.86,-3.1 4.02,-4.38l88.1 -88.43c1.27,-1.17 3.08,-2.88 4.36,-4.05l83.96 -84.15c1.19,-1.26 2.9,-3.07 4.1,-4.31l21.21 -20.82c10.69,-10.21 11.79,-11.06 21.31,-20.72l251.39 -252.96c9.48,-10.25 8.88,-10 20.53,-21.5l207.03 -204.85c1.25,-1.19 3.08,-2.87 4.35,-4.05l3010.26 -3008.22c213.09,-213.09 388.04,-425.38 556.87,-678.76 251.22,-377.05 470.02,-809.13 616.78,-1249.28 52.18,-156.48 98.74,-315.52 136.21,-485.81 71.51,-324.95 88.02,-504.82 113.24,-819.79 27.64,-345.1 4.93,-638.89 -33.37,-976.22 -8.62,-75.92 -19.86,-149.65 -33.6,-218.57 -80.3,-402.66 -182.08,-751.95 -340.56,-1130.43 -26.08,-62.27 -50.24,-106.72 -75.6,-168.17 -97.32,-235.8 -319.08,-567.59 -460.43,-775.2 -33.35,-48.99 -67.42,-91.43 -103.93,-139.84 -18.66,-24.73 -33.09,-42.12 -52.19,-65.5l-168.8 -201.05c-99.98,-125.3 -437.04,-446.57 -564.35,-545.18 -454.92,-352.39 -784.23,-564.07 -1316.17,-776.85 -362.1,-144.84 -758,-251.72 -1161.01,-310l-449.31 -46.63c-76.12,-8.54 -166.05,2.35 -236.43,-7.34 -78.9,-10.86 -153.15,6.18 -233.06,6.12 -420.86,-0.36 -876.79,91.8 -1275.9,203.49 -242.29,67.82 -492.35,158.55 -713.47,270.01l-118.91 57.61c-14.76,7.03 -26.93,15 -43.53,23.71l-159.75 84.02c-207.63,112.45 -404.56,249.98 -592.08,391.38l-202.91 166.93c-89.24,68.93 -162.78,164.68 -246.33,241.21 -1.27,1.17 -3.08,2.89 -4.35,4.06l-284.11 262.26c-22.25,19.72 -9.76,18.73 -40.36,26.9z"/>
   </clipPath>
 </defs>
 <g id="Camada_x0020_1">
  <metadata id="CorelCorpID_0Corel-Layer"/>
  <rect class="fil0" x="0" y="-0" width="22925.62" height="21964.19" rx="1080.53" ry="1464.09"/>
  <path class="fil1" d="M11469.75 4747.11c-49.91,-33.43 -325.46,-302.25 -405.46,-376.26l-426.75 -354.98 -315.81 -213.75c-219.32,-134.31 -443.73,-260.93 -683.21,-359.1 -441.03,-180.78 -893.77,-317.58 -1372.85,-375.53 -168.3,-20.37 -315.18,-34.61 -486.31,-34.84 -57.81,-0.08 -99.92,-8.7 -167.83,-8.7 -125.71,0 -319.37,7.06 -439.41,22.9 -35.82,4.72 -79.63,5.94 -108.47,9.21l-310.71 42.33c-251.58,41.36 -512.88,99.8 -746.89,186.14l-336.23 126.08c-435.4,171.84 -950.84,481.66 -1309.12,800.7 -128.72,114.62 -318.33,273.79 -419.97,395.38 -22.89,27.38 -28.96,37.1 -55.04,62.65 -97.89,95.89 -177.71,209.55 -264.92,315.08 -89.7,108.53 -167.96,225.38 -245.8,342.6l-90.8 144.56c-103.36,171.69 -204.84,344.78 -282.52,532.84 -89.72,217.23 -153.65,349.83 -230.82,592.94 -244.08,769.02 -309.29,1683.45 -153.08,2471.07 75.78,382.03 173.29,726.61 325.74,1069.61 49.23,110.76 94.07,216.67 151.48,319.24 115.66,206.66 225.26,385.37 360.57,572.45 68.76,95.07 130.25,177.99 203.36,267.36 37,45.23 67.33,85.21 105.32,130.04 76.51,90.3 193.97,229.41 272.74,307.26l113.49 121.86c135.79,134.56 265.17,280.02 394.98,420.37l1164.3 1180.9c157.56,157.56 308.96,308.96 466.52,466.52l1596.91 1555.22c23.95,23.69 39.44,30.62 63.38,54.3 70.13,69.39 164.64,177.98 237.3,233.43l2347.29 2326.27c39.42,39.43 75.37,73.15 113.48,113.46 6.29,6.65 6.5,6.96 11.98,13.24 1.14,1.31 2.73,3.23 3.86,4.55l445.08 462.73c48.53,32.89 87.31,67.58 127.47,107.9 58.16,58.37 124.71,122.53 205.36,147.68 115.09,35.9 229.25,7.88 319.3,-64.32 58.1,-46.59 106.34,-105.86 161.81,-149.2 156.08,-121.95 817.32,-803.33 940.03,-926.04l754.66 -749.97c11.78,-11.29 5.81,-7.31 20.75,-21.27l215.31 -213.39c1.19,-1.26 2.94,-3.02 4.15,-4.26 6.67,-6.8 5.97,-5.62 12.83,-12.38l874.05 -874.34c1.19,-1.26 2.93,-3.03 4.13,-4.27l134.83 -134.15c1.16,-1.28 2.82,-3.14 3.98,-4.43l462.32 -462.31c1.16,-1.28 2.86,-3.1 4.02,-4.38l88.1 -88.43c1.27,-1.17 3.08,-2.88 4.36,-4.05l83.96 -84.15c1.19,-1.26 2.9,-3.07 4.1,-4.31l21.21 -20.82c10.69,-10.21 11.79,-11.06 21.31,-20.72l251.39 -252.96c9.48,-10.25 8.88,-10 20.53,-21.5l207.03 -204.85c1.25,-1.19 3.08,-2.87 4.35,-4.05l3010.26 -3008.22c213.09,-213.09 388.04,-425.38 556.87,-678.76 251.22,-377.05 470.02,-809.13 616.78,-1249.28 52.18,-156.48 98.74,-315.52 136.21,-485.81 71.51,-324.95 88.02,-504.82 113.24,-819.79 27.64,-345.1 4.93,-638.89 -33.37,-976.22 -8.62,-75.92 -19.86,-149.65 -33.6,-218.57 -80.3,-402.66 -182.08,-751.95 -340.56,-1130.43 -26.08,-62.27 -50.24,-106.72 -75.6,-168.17 -97.32,-235.8 -319.08,-567.59 -460.43,-775.2 -33.35,-48.99 -67.42,-91.43 -103.93,-139.84 -18.66,-24.73 -33.09,-42.12 -52.19,-65.5l-168.8 -201.05c-99.98,-125.3 -437.04,-446.57 -564.35,-545.18 -454.92,-352.39 -784.23,-564.07 -1316.17,-776.85 -362.1,-144.84 -758,-251.72 -1161.01,-310l-449.31 -46.63c-76.12,-8.54 -166.05,2.35 -236.43,-7.34 -78.9,-10.86 -153.15,6.18 -233.06,6.12 -420.86,-0.36 -876.79,91.8 -1275.9,203.49 -242.29,67.82 -492.35,158.55 -713.47,270.01l-118.91 57.61c-14.76,7.03 -26.93,15 -43.53,23.71l-159.75 84.02c-207.63,112.45 -404.56,249.98 -592.08,391.38l-202.91 166.93c-89.24,68.93 -162.78,164.68 -246.33,241.21 -1.27,1.17 -3.08,2.89 -4.35,4.06l-284.11 262.26c-22.25,19.72 -9.76,18.73 -40.36,26.9z"/>
  <g style="clip-path:url(#id0)">
   <g id="_1975239401360">
    <g>
     <path id="1" class="fil2" d="M3160.8 10853.22l1.88 380.98 -190.49 0.94 -1.88 -380.98 190.49 -0.94zm3860.62 361.97l-3858.74 19.01 -1.88 -380.98 3858.74 -19.01 174.74 268.47 -172.86 112.51zm-1.88 -380.98c105.21,-0.51 190.92,84.35 191.43,189.55 0.51,105.21 -84.35,190.92 -189.55,191.43l-1.88 -380.98zm1752.48 -3248.17l-1577.74 3516.64 -347.6 -155.95 1577.74 -3516.64 353.19 13.91 -5.59 142.04zm-347.6 -155.95c43.06,-95.99 155.79,-138.88 251.78,-95.83 95.99,43.06 138.88,155.79 95.83,251.78l-347.6 -155.95zm2845.72 8125.71l-2851.31 -7983.67 358.78 -128.13 2851.31 7983.67 1.74 123.05 -360.52 5.08zm358.78 -128.13c35.38,99.07 -16.26,208.08 -115.32,243.46 -99.07,35.38 -208.08,-16.26 -243.46,-115.32l358.78 -128.13zm1883.58 -5655.58l-1881.84 5778.63 -362.26 -117.97 1881.84 -5778.63 357.11 -13.92 5.15 131.89zm-362.26 -117.97c32.57,-100.04 140.08,-154.71 240.12,-122.14 100.04,32.57 154.71,140.08 122.14,240.12l-362.26 -117.97zm556.39 1462.5l-551.24 -1330.61 351.96 -145.81 551.24 1330.61 -175.98 263.4 -175.98 -117.58zm351.96 -145.81c40.26,97.19 -5.89,208.63 -103.08,248.89 -97.19,40.26 -208.63,-5.89 -248.89,-103.08l351.96 -145.81zm5621.67 263.4l-5797.65 0 0 -380.98 5797.65 0 0 380.98zm0 0l0 -380.98 190.49 0 0 380.98 -190.49 0z"/>
    </g>
   </g>
  </g>
  <path class="fil3 str0" d="M11469.75 4747.11c-49.91,-33.43 -325.46,-302.25 -405.46,-376.26l-426.75 -354.98 -315.81 -213.75c-219.32,-134.31 -443.73,-260.93 -683.21,-359.1 -441.03,-180.78 -893.77,-317.58 -1372.85,-375.53 -168.3,-20.37 -315.18,-34.61 -486.31,-34.84 -57.81,-0.08 -99.92,-8.7 -167.83,-8.7 -125.71,0 -319.37,7.06 -439.41,22.9 -35.82,4.72 -79.63,5.94 -108.47,9.21l-310.71 42.33c-251.58,41.36 -512.88,99.8 -746.89,186.14l-336.23 126.08c-435.4,171.84 -950.84,481.66 -1309.12,800.7 -128.72,114.62 -318.33,273.79 -419.97,395.38 -22.89,27.38 -28.96,37.1 -55.04,62.65 -97.89,95.89 -177.71,209.55 -264.92,315.08 -89.7,108.53 -167.96,225.38 -245.8,342.6l-90.8 144.56c-103.36,171.69 -204.84,344.78 -282.52,532.84 -89.72,217.23 -153.65,349.83 -230.82,592.94 -244.08,769.02 -309.29,1683.45 -153.08,2471.07 75.78,382.03 173.29,726.61 325.74,1069.61 49.23,110.76 94.07,216.67 151.48,319.24 115.66,206.66 225.26,385.37 360.57,572.45 68.76,95.07 130.25,177.99 203.36,267.36 37,45.23 67.33,85.21 105.32,130.04 76.51,90.3 193.97,229.41 272.74,307.26l113.49 121.86c135.79,134.56 265.17,280.02 394.98,420.37l1164.3 1180.9c157.56,157.56 308.96,308.96 466.52,466.52l1596.91 1555.22c23.95,23.69 39.44,30.62 63.38,54.3 70.13,69.39 164.64,177.98 237.3,233.43l2347.29 2326.27c39.42,39.43 75.37,73.15 113.48,113.46 6.29,6.65 6.5,6.96 11.98,13.24 1.14,1.31 2.73,3.23 3.86,4.55l445.08 462.73c48.53,32.89 87.31,67.58 127.47,107.9 58.16,58.37 124.71,122.53 205.36,147.68 115.09,35.9 229.25,7.88 319.3,-64.32 58.1,-46.59 106.34,-105.86 161.81,-149.2 156.08,-121.95 817.32,-803.33 940.03,-926.04l754.66 -749.97c11.78,-11.29 5.81,-7.31 20.75,-21.27l215.31 -213.39c1.19,-1.26 2.94,-3.02 4.15,-4.26 6.67,-6.8 5.97,-5.62 12.83,-12.38l874.05 -874.34c1.19,-1.26 2.93,-3.03 4.13,-4.27l134.83 -134.15c1.16,-1.28 2.82,-3.14 3.98,-4.43l462.32 -462.31c1.16,-1.28 2.86,-3.1 4.02,-4.38l88.1 -88.43c1.27,-1.17 3.08,-2.88 4.36,-4.05l83.96 -84.15c1.19,-1.26 2.9,-3.07 4.1,-4.31l21.21 -20.82c10.69,-10.21 11.79,-11.06 21.31,-20.72l251.39 -252.96c9.48,-10.25 8.88,-10 20.53,-21.5l207.03 -204.85c1.25,-1.19 3.08,-2.87 4.35,-4.05l3010.26 -3008.22c213.09,-213.09 388.04,-425.38 556.87,-678.76 251.22,-377.05 470.02,-809.13 616.78,-1249.28 52.18,-156.48 98.74,-315.52 136.21,-485.81 71.51,-324.95 88.02,-504.82 113.24,-819.79 27.64,-345.1 4.93,-638.89 -33.37,-976.22 -8.62,-75.92 -19.86,-149.65 -33.6,-218.57 -80.3,-402.66 -182.08,-751.95 -340.56,-1130.43 -26.08,-62.27 -50.24,-106.72 -75.6,-168.17 -97.32,-235.8 -319.08,-567.59 -460.43,-775.2 -33.35,-48.99 -67.42,-91.43 -103.93,-139.84 -18.66,-24.73 -33.09,-42.12 -52.19,-65.5l-168.8 -201.05c-99.98,-125.3 -437.04,-446.57 -564.35,-545.18 -454.92,-352.39 -784.23,-564.07 -1316.17,-776.85 -362.1,-144.84 -758,-251.72 -1161.01,-310l-449.31 -46.63c-76.12,-8.54 -166.05,2.35 -236.43,-7.34 -78.9,-10.86 -153.15,6.18 -233.06,6.12 -420.86,-0.36 -876.79,91.8 -1275.9,203.49 -242.29,67.82 -492.35,158.55 -713.47,270.01l-118.91 57.61c-14.76,7.03 -26.93,15 -43.53,23.71l-159.75 84.02c-207.63,112.45 -404.56,249.98 -592.08,391.38l-202.91 166.93c-89.24,68.93 -162.78,164.68 -246.33,241.21 -1.27,1.17 -3.08,2.89 -4.35,4.06l-284.11 262.26c-22.25,19.72 -9.76,18.73 -40.36,26.9z"/>
 </g>
</svg>
